<svg xmlns="http://www.w3.org/2000/svg" style="display: none;">
  <symbol id="icon-trash" viewBox="0 0 16 16">
    <path d="M5.5 5.5C5.77614 5.5 6 5.72386 6 6V12C6 12.2761 5.77614 12.5 5.5 12.5C5.22386 12.5 5 12.2761 5 12V6C5 5.72386 5.22386 5.5 5.5 5.5Z" fill="currentColor"/>
    <path d="M8 6C8 5.72386 8.22386 5.5 8.5 5.5C8.77614 5.5 9 5.72386 9 6V12C9 12.2761 8.77614 12.5 8.5 12.5C8.22386 12.5 8 12.2761 8 12V6Z" fill="currentColor"/>
    <path d="M11 6C11 5.72386 10.7761 5.5 10.5 5.5C10.2239 5.5 10 5.72386 10 6V12C10 12.2761 10.2239 12.5 10.5 12.5C10.7761 12.5 11 12.2761 11 12V6Z" fill="currentColor"/>
    <path fill-rule="evenodd" clip-rule="evenodd" d="M14.5 3H11V2C11 1.44772 10.5523 1 10 1H6C5.44772 1 5 1.44772 5 2V3H1.5C1.22386 3 1 3.22386 1 3.5C1 3.77614 1.22386 4 1.5 4H2V13C2 13.5523 2.44772 14 3 14H13C13.5523 14 14 13.5523 14 13V4H14.5C14.7761 4 15 3.77614 15 3.5C15 3.22386 14.7761 3 14.5 3ZM6 2H10V3H6V2ZM13 4H3V13H13V4Z" fill="currentColor"/>
  </symbol>
  <symbol id="icon-plus" viewBox="0 0 16 16">
    <path fill-rule="evenodd" clip-rule="evenodd" d="M8 2C8.27614 2 8.5 2.22386 8.5 2.5V7.5H13.5C13.7761 7.5 14 7.72386 14 8C14 8.27614 13.7761 8.5 13.5 8.5H8.5V13.5C8.5 13.7761 8.27614 14 8 14C7.72386 14 7.5 13.7761 7.5 13.5V8.5H2.5C2.22386 8.5 2 8.27614 2 8C2 7.72386 2.22386 7.5 2.5 7.5H7.5V2.5C7.5 2.22386 7.72386 2 8 2Z" fill="currentColor"/>
  </symbol>
</svg>
